 <svg
    role="img"
    viewBox="0 0 24 24"
    fill="currentColor"
    xmlns="http://www.w3.org/2000/svg"
  >
    <title>GitHub</title>
    <path d="M12 0C5.37 0 0 5.37 0 12c0 5.3 3.438 9.8 8.207 11.387.6.113.82-.26.82-.577v-2.234c-3.338.726-4.033-1.61-4.033-1.61-.546-1.386-1.333-1.755-1.333-1.755-1.09-.745.083-.73.083-.73 1.205.086 1.84 1.236 1.84 1.236 1.07 1.834 2.81 1.304 3.495.997.108-.776.418-1.305.762-1.606-2.665-.305-5.467-1.335-5.467-5.93 0-1.31.467-2.38 1.235-3.22-.124-.303-.535-1.523.117-3.176 0 0 1.008-.323 3.3 1.23a11.5 11.5 0 013.003-.404c1.02.005 2.045.138 3.003.404 2.29-1.553 3.297-1.23 3.297-1.23.654 1.653.243 2.873.12 3.176.77.84 1.234 1.91 1.234 3.22 0 4.61-2.807 5.62-5.48 5.92.43.37.823 1.102.823 2.222v3.293c0 .32.217.694.825.576C20.565 21.796 24 17.3 24 12c0-6.63-5.37-12-12-12z" />
  </svg>